<?xml version="1.0" encoding="UTF-8" standalone="no"?>
<svg
   xmlns:ooo="http://xml.openoffice.org/svg/export"
   xmlns:dc="http://purl.org/dc/elements/1.1/"
   xmlns:cc="http://creativecommons.org/ns#"
   xmlns:rdf="http://www.w3.org/1999/02/22-rdf-syntax-ns#"
   xmlns:svg="http://www.w3.org/2000/svg"
   xmlns="http://www.w3.org/2000/svg"
   xmlns:sodipodi="http://sodipodi.sourceforge.net/DTD/sodipodi-0.dtd"
   xmlns:inkscape="http://www.inkscape.org/namespaces/inkscape"
   version="1.2"
   width="32"
   height="32"
   viewBox="0 0 846.66672 846.66668"
   preserveAspectRatio="xMidYMid"
   xml:space="preserve"
   id="svg242"
   sodipodi:docname="articles.svg"
   style="fill-rule:evenodd;stroke-width:28.22200012;stroke-linejoin:round"
   inkscape:version="0.92.4 (f8dce91, 2019-08-02)"><metadata
   id="metadata246"><rdf:RDF><cc:Work
       rdf:about=""><dc:format>image/svg+xml</dc:format><dc:type
         rdf:resource="http://purl.org/dc/dcmitype/StillImage" /><dc:title></dc:title></cc:Work></rdf:RDF></metadata><sodipodi:namedview
   pagecolor="#ffffff"
   bordercolor="#666666"
   borderopacity="1"
   objecttolerance="10"
   gridtolerance="10"
   guidetolerance="10"
   inkscape:pageopacity="0"
   inkscape:pageshadow="2"
   inkscape:window-width="1853"
   inkscape:window-height="955"
   id="namedview244"
   showgrid="false"
   inkscape:pagecheckerboard="true"
   inkscape:zoom="15.397221"
   inkscape:cx="23.083526"
   inkscape:cy="15.369771"
   inkscape:window-x="67"
   inkscape:window-y="27"
   inkscape:window-maximized="1"
   inkscape:current-layer="svg242"
   inkscape:snap-page="false"
   inkscape:object-paths="true"
   units="px" />
 <defs
   class="ClipPathGroup"
   id="defs154"><inkscape:perspective
   sodipodi:type="inkscape:persp3d"
   inkscape:vp_x="2415.0466 : 122.61737 : 1"
   inkscape:vp_y="-1266.9907 : 2164.4485 : 0"
   inkscape:vp_z="5240.2409 : 818.43823 : 1"
   inkscape:persp3d-origin="4006.4304 : 165.10008 : 1"
   id="perspective6511" /><marker
   inkscape:stockid="Arrow1Lstart"
   orient="auto"
   refY="0.0"
   refX="0.0"
   id="Arrow1Lstart"
   style="overflow:visible"
   inkscape:isstock="true"><path
     id="path4709"
     d="M 0.0,0.0 L 5.0,-5.0 L -12.5,0.0 L 5.0,5.0 L 0.0,0.0 z "
     style="fill-rule:evenodd;stroke:#000000;stroke-width:1.0pt"
     transform="scale(0.8) translate(12.5,0)" /></marker>
  <clipPath
   id="presentation_clip_path"
   clipPathUnits="userSpaceOnUse">
   <rect
   x="0"
   y="0"
   width="21000"
   height="29700"
   id="rect148" />
  </clipPath>
  <clipPath
   id="presentation_clip_path_shrink"
   clipPathUnits="userSpaceOnUse">
   <rect
   x="21"
   y="29"
   width="20958"
   height="29641"
   id="rect151" />
  </clipPath>
 
  
 </defs>
 <defs
   class="TextShapeIndex"
   id="defs158">
  <g
   ooo:slide="id1"
   ooo:id-list="id3 id4 id5 id6 id7"
   id="g156" />
 </defs>
 <defs
   class="EmbeddedBulletChars"
   id="defs190">
  <g
   id="bullet-char-template-57356"
   transform="matrix(4.8828125e-4,0,0,-4.8828125e-4,0,0)">
   <path
   d="M 580,1141 1163,571 580,0 -4,571 Z"
   id="path160"
   inkscape:connector-curvature="0" />
  </g>
  <g
   id="bullet-char-template-57354"
   transform="matrix(4.8828125e-4,0,0,-4.8828125e-4,0,0)">
   <path
   d="M 8,1128 H 1137 V 0 H 8 Z"
   id="path163"
   inkscape:connector-curvature="0" />
  </g>
  <g
   id="bullet-char-template-10146"
   transform="matrix(4.8828125e-4,0,0,-4.8828125e-4,0,0)">
   <path
   d="M 174,0 602,739 174,1481 1456,739 Z M 1358,739 309,1346 659,739 Z"
   id="path166"
   inkscape:connector-curvature="0" />
  </g>
  <g
   id="bullet-char-template-10132"
   transform="matrix(4.8828125e-4,0,0,-4.8828125e-4,0,0)">
   <path
   d="M 2015,739 1276,0 H 717 l 543,543 H 174 v 393 h 1086 l -543,545 h 557 z"
   id="path169"
   inkscape:connector-curvature="0" />
  </g>
  <g
   id="bullet-char-template-10007"
   transform="matrix(4.8828125e-4,0,0,-4.8828125e-4,0,0)">
   <path
   d="m 0,-2 c -7,16 -16,29 -25,39 l 381,530 c -94,256 -141,385 -141,387 0,25 13,38 40,38 9,0 21,-2 34,-5 21,4 42,12 65,25 l 27,-13 111,-251 280,301 64,-25 24,25 c 21,-10 41,-24 62,-43 C 886,937 835,863 770,784 769,783 710,716 594,584 L 774,223 c 0,-27 -21,-55 -63,-84 l 16,-20 C 717,90 699,76 672,76 641,76 570,178 457,381 L 164,-76 c -22,-34 -53,-51 -92,-51 -42,0 -63,17 -64,51 -7,9 -10,24 -10,44 0,9 1,19 2,30 z"
   id="path172"
   inkscape:connector-curvature="0" />
  </g>
  <g
   id="bullet-char-template-10004"
   transform="matrix(4.8828125e-4,0,0,-4.8828125e-4,0,0)">
   <path
   d="M 285,-33 C 182,-33 111,30 74,156 52,228 41,333 41,471 c 0,78 14,145 41,201 34,71 87,106 158,106 53,0 88,-31 106,-94 l 23,-176 c 8,-64 28,-97 59,-98 l 735,706 c 11,11 33,17 66,17 42,0 63,-15 63,-46 V 965 c 0,-36 -10,-64 -30,-84 L 442,47 C 390,-6 338,-33 285,-33 Z"
   id="path175"
   inkscape:connector-curvature="0" />
  </g>
  <g
   id="bullet-char-template-9679"
   transform="matrix(4.8828125e-4,0,0,-4.8828125e-4,0,0)">
   <path
   d="M 813,0 C 632,0 489,54 383,161 276,268 223,411 223,592 c 0,181 53,324 160,431 106,107 249,161 430,161 179,0 323,-54 432,-161 108,-107 162,-251 162,-431 0,-180 -54,-324 -162,-431 C 1136,54 992,0 813,0 Z"
   id="path178"
   inkscape:connector-curvature="0" />
  </g>
  <g
   id="bullet-char-template-8226"
   transform="matrix(4.8828125e-4,0,0,-4.8828125e-4,0,0)">
   <path
   d="m 346,457 c -73,0 -137,26 -191,78 -54,51 -81,114 -81,188 0,73 27,136 81,188 54,52 118,78 191,78 73,0 134,-26 185,-79 51,-51 77,-114 77,-187 0,-75 -25,-137 -76,-188 -50,-52 -112,-78 -186,-78 z"
   id="path181"
   inkscape:connector-curvature="0" />
  </g>
  <g
   id="bullet-char-template-8211"
   transform="matrix(4.8828125e-4,0,0,-4.8828125e-4,0,0)">
   <path
   d="M -4,459 H 1135 V 606 H -4 Z"
   id="path184"
   inkscape:connector-curvature="0" />
  </g>
  <g
   id="bullet-char-template-61548"
   transform="matrix(4.8828125e-4,0,0,-4.8828125e-4,0,0)">
   <path
   d="m 173,740 c 0,163 58,303 173,419 116,115 255,173 419,173 163,0 302,-58 418,-173 116,-116 174,-256 174,-419 0,-163 -58,-303 -174,-418 C 1067,206 928,148 765,148 601,148 462,206 346,322 231,437 173,577 173,740 Z"
   id="path187"
   inkscape:connector-curvature="0" />
  </g>
 </defs>
 <defs
   class="TextEmbeddedBitmaps"
   id="defs192" />
 
 
<rect
   style="opacity:1;fill:none;stroke:#ffffff;stroke-width:43.41812671;stroke-linejoin:round;stroke-miterlimit:4;stroke-dasharray:none;stroke-opacity:1;paint-order:markers fill stroke"
   id="rect869"
   width="530.79309"
   height="631.69379"
   x="24.8624"
   y="188.39215" /><path
   style="fill:none;stroke:#ffffff;stroke-width:21.71125793px;stroke-linecap:butt;stroke-linejoin:miter;stroke-opacity:1"
   d="M 104.60324,277.36755 H 473.1539"
   id="path876"
   inkscape:connector-curvature="0" /><path
   inkscape:connector-curvature="0"
   id="path893"
   d="M 104.60324,321.72552 H 473.1539"
   style="fill:none;stroke:#ffffff;stroke-width:21.71125793px;stroke-linecap:butt;stroke-linejoin:miter;stroke-opacity:1" /><path
   style="fill:none;stroke:#ffffff;stroke-width:21.71125793px;stroke-linecap:butt;stroke-linejoin:miter;stroke-opacity:1"
   d="M 104.60324,366.0835 H 473.1539"
   id="path895"
   inkscape:connector-curvature="0" /><path
   inkscape:connector-curvature="0"
   id="path897"
   d="M 104.60324,410.44147 H 473.1539"
   style="fill:none;stroke:#ffffff;stroke-width:21.71125793px;stroke-linecap:butt;stroke-linejoin:miter;stroke-opacity:1" /><path
   style="fill:none;stroke:#ffffff;stroke-width:21.71125793px;stroke-linecap:butt;stroke-linejoin:miter;stroke-opacity:1"
   d="M 104.60324,454.79945 H 473.1539"
   id="path899"
   inkscape:connector-curvature="0" /><path
   inkscape:connector-curvature="0"
   id="path901"
   d="M 104.60324,499.15742 H 473.1539"
   style="fill:none;stroke:#ffffff;stroke-width:21.71125793px;stroke-linecap:butt;stroke-linejoin:miter;stroke-opacity:1" /><path
   style="fill:none;stroke:#ffffff;stroke-width:21.71125793px;stroke-linecap:butt;stroke-linejoin:miter;stroke-opacity:1"
   d="M 104.60324,543.5154 H 473.1539"
   id="path903"
   inkscape:connector-curvature="0" /><path
   inkscape:connector-curvature="0"
   id="path905"
   d="M 104.60324,587.87337 H 473.1539"
   style="fill:none;stroke:#ffffff;stroke-width:21.71125793px;stroke-linecap:butt;stroke-linejoin:miter;stroke-opacity:1" /><path
   style="fill:none;stroke:#ffffff;stroke-width:21.71125793px;stroke-linecap:butt;stroke-linejoin:miter;stroke-opacity:1"
   d="M 104.60324,632.23135 H 473.1539"
   id="path907"
   inkscape:connector-curvature="0" /><path
   inkscape:connector-curvature="0"
   id="path909"
   d="M 104.60324,676.58933 H 473.1539"
   style="fill:none;stroke:#ffffff;stroke-width:21.71125793px;stroke-linecap:butt;stroke-linejoin:miter;stroke-opacity:1" /><path
   style="fill:none;stroke:#ffffff;stroke-width:21.71125793px;stroke-linecap:butt;stroke-linejoin:miter;stroke-opacity:1"
   d="M 104.60324,720.94729 H 473.1539"
   id="path911"
   inkscape:connector-curvature="0" /><path
   style="fill:none;fill-rule:evenodd;stroke:#ffffff;stroke-width:21.71125412px;stroke-linecap:butt;stroke-linejoin:miter;stroke-opacity:1"
   d="M 369.53021,99.676211 H 738.08077"
   id="path876-3"
   inkscape:connector-curvature="0" /><path
   inkscape:connector-curvature="0"
   id="path893-5"
   d="M 369.53021,144.03418 H 738.08077"
   style="fill:none;fill-rule:evenodd;stroke:#ffffff;stroke-width:21.71125412px;stroke-linecap:butt;stroke-linejoin:miter;stroke-opacity:1" /><path
   style="fill:none;fill-rule:evenodd;stroke:#ffffff;stroke-width:21.72229252;stroke-linecap:butt;stroke-linejoin:miter;stroke-opacity:1;stroke-miterlimit:4;stroke-dasharray:none"
   d="M 555.65549,188.39215 H 738.08077"
   id="path895-6"
   inkscape:connector-curvature="0" /><path
   inkscape:connector-curvature="0"
   id="path897-2"
   d="M 555.65549,232.75012 H 738.08077"
   style="fill:none;fill-rule:evenodd;stroke:#ffffff;stroke-width:21.72229252;stroke-linecap:butt;stroke-linejoin:miter;stroke-opacity:1;stroke-miterlimit:4;stroke-dasharray:none" /><path
   style="fill:none;fill-rule:evenodd;stroke:#ffffff;stroke-width:21.72229252;stroke-linecap:butt;stroke-linejoin:miter;stroke-opacity:1;stroke-miterlimit:4;stroke-dasharray:none"
   d="M 555.65549,277.10807 H 738.08077"
   id="path899-9"
   inkscape:connector-curvature="0" /><path
   inkscape:connector-curvature="0"
   id="path901-1"
   d="M 555.65549,321.46606 H 738.08077"
   style="fill:none;fill-rule:evenodd;stroke:#ffffff;stroke-width:21.72229252;stroke-linecap:butt;stroke-linejoin:miter;stroke-opacity:1;stroke-miterlimit:4;stroke-dasharray:none" /><path
   style="fill:none;fill-rule:evenodd;stroke:#ffffff;stroke-width:21.72229252;stroke-linecap:butt;stroke-linejoin:miter;stroke-opacity:1;stroke-miterlimit:4;stroke-dasharray:none"
   d="M 555.65549,365.82402 H 738.08077"
   id="path903-2"
   inkscape:connector-curvature="0" /><path
   inkscape:connector-curvature="0"
   id="path905-7"
   d="M 555.65549,410.182 H 738.08077"
   style="fill:none;fill-rule:evenodd;stroke:#ffffff;stroke-width:21.72229252;stroke-linecap:butt;stroke-linejoin:miter;stroke-opacity:1;stroke-miterlimit:4;stroke-dasharray:none" /><path
   style="fill:none;fill-rule:evenodd;stroke:#ffffff;stroke-width:21.72229252;stroke-linecap:butt;stroke-linejoin:miter;stroke-opacity:1;stroke-miterlimit:4;stroke-dasharray:none"
   d="M 555.65549,454.53996 H 738.08077"
   id="path907-0"
   inkscape:connector-curvature="0" /><path
   inkscape:connector-curvature="0"
   id="path909-9"
   d="M 555.65549,498.89794 H 738.08077"
   style="fill:none;fill-rule:evenodd;stroke:#ffffff;stroke-width:21.72229252;stroke-linecap:butt;stroke-linejoin:miter;stroke-opacity:1;stroke-miterlimit:4;stroke-dasharray:none" /><path
   style="fill:none;fill-rule:evenodd;stroke:#ffffff;stroke-width:21.72229252;stroke-linecap:butt;stroke-linejoin:miter;stroke-opacity:1;stroke-miterlimit:4;stroke-dasharray:none"
   d="M 555.65549,543.2559 H 738.08077"
   id="path911-3"
   inkscape:connector-curvature="0" /><path
   style="fill:none;stroke:#ffffff;stroke-width:43.65625;stroke-linecap:butt;stroke-linejoin:round;stroke-miterlimit:4;stroke-dasharray:none;stroke-opacity:1"
   d="M 295.56199,188.39215 293.22614,10.700813 H 824.01917 V 642.39451 l -244.92385,3e-5 h 1.71847"
   id="path5374"
   inkscape:connector-curvature="0" /></svg>