<?xml version="1.0" encoding="UTF-8" standalone="no"?>
<svg
   xmlns:ooo="http://xml.openoffice.org/svg/export"
   xmlns:dc="http://purl.org/dc/elements/1.1/"
   xmlns:cc="http://creativecommons.org/ns#"
   xmlns:rdf="http://www.w3.org/1999/02/22-rdf-syntax-ns#"
   xmlns:svg="http://www.w3.org/2000/svg"
   xmlns="http://www.w3.org/2000/svg"
   xmlns:sodipodi="http://sodipodi.sourceforge.net/DTD/sodipodi-0.dtd"
   xmlns:inkscape="http://www.inkscape.org/namespaces/inkscape"
   version="1.2"
   width="32"
   height="32"
   viewBox="0 0 846.66672 846.66668"
   preserveAspectRatio="xMidYMid"
   xml:space="preserve"
   id="svg242"
   sodipodi:docname="expert.svg"
   style="fill-rule:evenodd;stroke-width:28.22200012;stroke-linejoin:round"
   inkscape:version="0.92.4 (f8dce91, 2019-08-02)"><metadata
   id="metadata246"><rdf:RDF><cc:Work
       rdf:about=""><dc:format>image/svg+xml</dc:format><dc:type
         rdf:resource="http://purl.org/dc/dcmitype/StillImage" /><dc:title></dc:title></cc:Work></rdf:RDF></metadata><sodipodi:namedview
   pagecolor="#ffffff"
   bordercolor="#666666"
   borderopacity="1"
   objecttolerance="10"
   gridtolerance="10"
   guidetolerance="10"
   inkscape:pageopacity="0"
   inkscape:pageshadow="2"
   inkscape:window-width="1853"
   inkscape:window-height="955"
   id="namedview244"
   showgrid="false"
   inkscape:pagecheckerboard="true"
   inkscape:zoom="15.397221"
   inkscape:cx="0.20738137"
   inkscape:cy="12.054323"
   inkscape:window-x="67"
   inkscape:window-y="27"
   inkscape:window-maximized="1"
   inkscape:current-layer="svg242"
   inkscape:snap-page="false"
   inkscape:object-paths="true"
   units="px" />
 <defs
   class="ClipPathGroup"
   id="defs154"><inkscape:perspective
   sodipodi:type="inkscape:persp3d"
   inkscape:vp_x="2415.0466 : 122.61737 : 1"
   inkscape:vp_y="-1266.9907 : 2164.4485 : 0"
   inkscape:vp_z="5240.2409 : 818.43823 : 1"
   inkscape:persp3d-origin="4006.4304 : 165.10008 : 1"
   id="perspective6511" /><marker
   inkscape:stockid="Arrow1Lstart"
   orient="auto"
   refY="0.0"
   refX="0.0"
   id="Arrow1Lstart"
   style="overflow:visible"
   inkscape:isstock="true"><path
     id="path4709"
     d="M 0.0,0.0 L 5.0,-5.0 L -12.5,0.0 L 5.0,5.0 L 0.0,0.0 z "
     style="fill-rule:evenodd;stroke:#000000;stroke-width:1.0pt"
     transform="scale(0.8) translate(12.5,0)" /></marker>
  <clipPath
   id="presentation_clip_path"
   clipPathUnits="userSpaceOnUse">
   <rect
   x="0"
   y="0"
   width="21000"
   height="29700"
   id="rect148" />
  </clipPath>
  <clipPath
   id="presentation_clip_path_shrink"
   clipPathUnits="userSpaceOnUse">
   <rect
   x="21"
   y="29"
   width="20958"
   height="29641"
   id="rect151" />
  </clipPath>
 
  
 </defs>
 <defs
   class="TextShapeIndex"
   id="defs158">
  <g
   ooo:slide="id1"
   ooo:id-list="id3 id4 id5 id6 id7"
   id="g156" />
 </defs>
 <defs
   class="EmbeddedBulletChars"
   id="defs190">
  <g
   id="bullet-char-template-57356"
   transform="matrix(4.8828125e-4,0,0,-4.8828125e-4,0,0)">
   <path
   d="M 580,1141 1163,571 580,0 -4,571 Z"
   id="path160"
   inkscape:connector-curvature="0" />
  </g>
  <g
   id="bullet-char-template-57354"
   transform="matrix(4.8828125e-4,0,0,-4.8828125e-4,0,0)">
   <path
   d="M 8,1128 H 1137 V 0 H 8 Z"
   id="path163"
   inkscape:connector-curvature="0" />
  </g>
  <g
   id="bullet-char-template-10146"
   transform="matrix(4.8828125e-4,0,0,-4.8828125e-4,0,0)">
   <path
   d="M 174,0 602,739 174,1481 1456,739 Z M 1358,739 309,1346 659,739 Z"
   id="path166"
   inkscape:connector-curvature="0" />
  </g>
  <g
   id="bullet-char-template-10132"
   transform="matrix(4.8828125e-4,0,0,-4.8828125e-4,0,0)">
   <path
   d="M 2015,739 1276,0 H 717 l 543,543 H 174 v 393 h 1086 l -543,545 h 557 z"
   id="path169"
   inkscape:connector-curvature="0" />
  </g>
  <g
   id="bullet-char-template-10007"
   transform="matrix(4.8828125e-4,0,0,-4.8828125e-4,0,0)">
   <path
   d="m 0,-2 c -7,16 -16,29 -25,39 l 381,530 c -94,256 -141,385 -141,387 0,25 13,38 40,38 9,0 21,-2 34,-5 21,4 42,12 65,25 l 27,-13 111,-251 280,301 64,-25 24,25 c 21,-10 41,-24 62,-43 C 886,937 835,863 770,784 769,783 710,716 594,584 L 774,223 c 0,-27 -21,-55 -63,-84 l 16,-20 C 717,90 699,76 672,76 641,76 570,178 457,381 L 164,-76 c -22,-34 -53,-51 -92,-51 -42,0 -63,17 -64,51 -7,9 -10,24 -10,44 0,9 1,19 2,30 z"
   id="path172"
   inkscape:connector-curvature="0" />
  </g>
  <g
   id="bullet-char-template-10004"
   transform="matrix(4.8828125e-4,0,0,-4.8828125e-4,0,0)">
   <path
   d="M 285,-33 C 182,-33 111,30 74,156 52,228 41,333 41,471 c 0,78 14,145 41,201 34,71 87,106 158,106 53,0 88,-31 106,-94 l 23,-176 c 8,-64 28,-97 59,-98 l 735,706 c 11,11 33,17 66,17 42,0 63,-15 63,-46 V 965 c 0,-36 -10,-64 -30,-84 L 442,47 C 390,-6 338,-33 285,-33 Z"
   id="path175"
   inkscape:connector-curvature="0" />
  </g>
  <g
   id="bullet-char-template-9679"
   transform="matrix(4.8828125e-4,0,0,-4.8828125e-4,0,0)">
   <path
   d="M 813,0 C 632,0 489,54 383,161 276,268 223,411 223,592 c 0,181 53,324 160,431 106,107 249,161 430,161 179,0 323,-54 432,-161 108,-107 162,-251 162,-431 0,-180 -54,-324 -162,-431 C 1136,54 992,0 813,0 Z"
   id="path178"
   inkscape:connector-curvature="0" />
  </g>
  <g
   id="bullet-char-template-8226"
   transform="matrix(4.8828125e-4,0,0,-4.8828125e-4,0,0)">
   <path
   d="m 346,457 c -73,0 -137,26 -191,78 -54,51 -81,114 -81,188 0,73 27,136 81,188 54,52 118,78 191,78 73,0 134,-26 185,-79 51,-51 77,-114 77,-187 0,-75 -25,-137 -76,-188 -50,-52 -112,-78 -186,-78 z"
   id="path181"
   inkscape:connector-curvature="0" />
  </g>
  <g
   id="bullet-char-template-8211"
   transform="matrix(4.8828125e-4,0,0,-4.8828125e-4,0,0)">
   <path
   d="M -4,459 H 1135 V 606 H -4 Z"
   id="path184"
   inkscape:connector-curvature="0" />
  </g>
  <g
   id="bullet-char-template-61548"
   transform="matrix(4.8828125e-4,0,0,-4.8828125e-4,0,0)">
   <path
   d="m 173,740 c 0,163 58,303 173,419 116,115 255,173 419,173 163,0 302,-58 418,-173 116,-116 174,-256 174,-419 0,-163 -58,-303 -174,-418 C 1067,206 928,148 765,148 601,148 462,206 346,322 231,437 173,577 173,740 Z"
   id="path187"
   inkscape:connector-curvature="0" />
  </g>
 </defs>
 <defs
   class="TextEmbeddedBitmaps"
   id="defs192" />
 
 
<ellipse
   style="fill:#ffffff;stroke-width:314.7819519"
   cx="464.08691"
   cy="209.53252"
   id="circle6757"
   rx="182.41156"
   ry="174.59492" /><path
   inkscape:connector-curvature="0"
   style="fill:#ffffff;stroke-width:314.7819519"
   d="M 265.71436,772.60116 190.46958,610.00963 V 499.79658 c 0,-13.0946 7.98051,-26.1892 19.38123,-32.73654 6.84043,-3.27367 9.12058,-10.91218 5.70036,-16.36827 -2.28015,-4.36484 -6.84043,-7.63851 -12.5408,-6.54726 H 73.042123 c -6.840395,0 -13.680871,4.36484 -13.680871,12.00335 0,5.45609 2.280185,9.82101 6.840476,12.00343 12.540778,6.54734 19.381174,19.64194 19.381174,32.73654 V 611.10088 L 11.478245,772.60116 c -9.1205899,18.55069 0,41.4663 20.52126,49.10481 4.56029,2.1825 10.26068,3.27367 15.961061,3.27367 H 230.37211 c 21.66137,0 38.76246,-16.36827 38.76246,-37.10138 0,-5.45618 -1.14007,-10.91227 -3.42021,-15.2771 z M 112.94464,524.89461 v -25.09803 c 0,-10.91218 -2.2801,-21.82436 -9.12058,-31.64529 h 69.54445 c -5.70038,9.82093 -9.12058,20.73311 -9.12058,31.64529 v 25.09803 z"
   id="path6759" /><ellipse
   style="fill:#ffffff;stroke-width:314.7819519"
   cx="151.70714"
   cy="293.55637"
   id="circle6761"
   rx="19.381229"
   ry="18.550711" /><ellipse
   style="fill:#ffffff;stroke-width:314.7819519"
   cx="184.76923"
   cy="350.29968"
   id="circle6763"
   rx="19.381229"
   ry="18.550711" /><ellipse
   style="fill:#ffffff;stroke-width:314.7819519"
   cx="112.94469"
   cy="337.20511"
   id="circle6765"
   rx="19.381229"
   ry="18.550711" /><ellipse
   style="fill:#ffffff;stroke-width:314.7819519"
   cx="125.48543"
   cy="405.95178"
   id="circle6767"
   rx="26.221663"
   ry="25.098019" /><path
   inkscape:connector-curvature="0"
   style="fill:#ffffff;stroke-width:314.7819519"
   d="m 407.08332,677.66521 -82.08521,-82.9326 45.6029,-54.5609 v -1.09125 l -69.54441,6.54725 2.28015,-92.75352 c -27.36175,8.72976 -54.72348,18.55077 -80.94515,30.55412 -4.56028,4.36492 -7.9805,10.91218 -9.12058,17.45952 v 104.75696 l 72.96463,158.22661 c 2.28015,4.36492 3.42023,8.72976 4.56029,13.09459 h 116.28738 z"
   id="path6769" /><path
   inkscape:connector-curvature="0"
   style="fill:#ffffff;stroke-width:314.7819519"
   d="M 429.88477,667.8442 V 776.96599 H 498.2891 V 667.8442 l 82.08521,-226.97336 c -38.76245,-8.72976 -77.52494,-13.09468 -116.28737,-13.09468 -38.76246,0 -77.52491,4.36492 -115.14731,13.09468 z"
   id="path6771" /><path
   inkscape:connector-curvature="0"
   style="fill:#ffffff;stroke-width:314.7819519"
   d="M 792.42774,532.53312 C 742.2646,495.43174 685.26097,469.24246 624.83713,452.87419 l 2.28015,92.75352 -69.54439,-6.54725 v 1.09125 l 45.60288,54.5609 -82.08521,82.9326 v 99.30078 H 828.91007 V 602.37112 c -1.14006,-27.28045 -13.68087,-53.46973 -36.48233,-69.838 z"
   id="path6773" /></svg>