<?xml version="1.0" encoding="UTF-8" standalone="no"?>
<svg
   xmlns:ooo="http://xml.openoffice.org/svg/export"
   xmlns:dc="http://purl.org/dc/elements/1.1/"
   xmlns:cc="http://creativecommons.org/ns#"
   xmlns:rdf="http://www.w3.org/1999/02/22-rdf-syntax-ns#"
   xmlns:svg="http://www.w3.org/2000/svg"
   xmlns="http://www.w3.org/2000/svg"
   xmlns:sodipodi="http://sodipodi.sourceforge.net/DTD/sodipodi-0.dtd"
   xmlns:inkscape="http://www.inkscape.org/namespaces/inkscape"
   version="1.2"
   width="32"
   height="32"
   viewBox="0 0 846.66672 846.66668"
   preserveAspectRatio="xMidYMid"
   xml:space="preserve"
   id="svg242"
   sodipodi:docname="girl.svg"
   style="fill-rule:evenodd;stroke-width:28.22200012;stroke-linejoin:round"
   inkscape:version="0.92.4 (f8dce91, 2019-08-02)"><metadata
   id="metadata246"><rdf:RDF><cc:Work
       rdf:about=""><dc:format>image/svg+xml</dc:format><dc:type
         rdf:resource="http://purl.org/dc/dcmitype/StillImage" /><dc:title></dc:title></cc:Work></rdf:RDF></metadata><sodipodi:namedview
   pagecolor="#ffffff"
   bordercolor="#666666"
   borderopacity="1"
   objecttolerance="10"
   gridtolerance="10"
   guidetolerance="10"
   inkscape:pageopacity="0"
   inkscape:pageshadow="2"
   inkscape:window-width="1853"
   inkscape:window-height="955"
   id="namedview244"
   showgrid="false"
   inkscape:pagecheckerboard="true"
   inkscape:zoom="15.397221"
   inkscape:cx="23.083526"
   inkscape:cy="17.967642"
   inkscape:window-x="67"
   inkscape:window-y="27"
   inkscape:window-maximized="1"
   inkscape:current-layer="svg242"
   inkscape:snap-page="false"
   inkscape:object-paths="true"
   units="px" />
 <defs
   class="ClipPathGroup"
   id="defs154"><inkscape:perspective
   sodipodi:type="inkscape:persp3d"
   inkscape:vp_x="2415.0466 : 122.61737 : 1"
   inkscape:vp_y="-1266.9907 : 2164.4485 : 0"
   inkscape:vp_z="5240.2409 : 818.43823 : 1"
   inkscape:persp3d-origin="4006.4304 : 165.10008 : 1"
   id="perspective6511" /><marker
   inkscape:stockid="Arrow1Lstart"
   orient="auto"
   refY="0.0"
   refX="0.0"
   id="Arrow1Lstart"
   style="overflow:visible"
   inkscape:isstock="true"><path
     id="path4709"
     d="M 0.0,0.0 L 5.0,-5.0 L -12.5,0.0 L 5.0,5.0 L 0.0,0.0 z "
     style="fill-rule:evenodd;stroke:#000000;stroke-width:1.0pt"
     transform="scale(0.8) translate(12.5,0)" /></marker>
  <clipPath
   id="presentation_clip_path"
   clipPathUnits="userSpaceOnUse">
   <rect
   x="0"
   y="0"
   width="21000"
   height="29700"
   id="rect148" />
  </clipPath>
  <clipPath
   id="presentation_clip_path_shrink"
   clipPathUnits="userSpaceOnUse">
   <rect
   x="21"
   y="29"
   width="20958"
   height="29641"
   id="rect151" />
  </clipPath>
 
  
 </defs>
 <defs
   class="TextShapeIndex"
   id="defs158">
  <g
   ooo:slide="id1"
   ooo:id-list="id3 id4 id5 id6 id7"
   id="g156" />
 </defs>
 <defs
   class="EmbeddedBulletChars"
   id="defs190">
  <g
   id="bullet-char-template-57356"
   transform="matrix(4.8828125e-4,0,0,-4.8828125e-4,0,0)">
   <path
   d="M 580,1141 1163,571 580,0 -4,571 Z"
   id="path160"
   inkscape:connector-curvature="0" />
  </g>
  <g
   id="bullet-char-template-57354"
   transform="matrix(4.8828125e-4,0,0,-4.8828125e-4,0,0)">
   <path
   d="M 8,1128 H 1137 V 0 H 8 Z"
   id="path163"
   inkscape:connector-curvature="0" />
  </g>
  <g
   id="bullet-char-template-10146"
   transform="matrix(4.8828125e-4,0,0,-4.8828125e-4,0,0)">
   <path
   d="M 174,0 602,739 174,1481 1456,739 Z M 1358,739 309,1346 659,739 Z"
   id="path166"
   inkscape:connector-curvature="0" />
  </g>
  <g
   id="bullet-char-template-10132"
   transform="matrix(4.8828125e-4,0,0,-4.8828125e-4,0,0)">
   <path
   d="M 2015,739 1276,0 H 717 l 543,543 H 174 v 393 h 1086 l -543,545 h 557 z"
   id="path169"
   inkscape:connector-curvature="0" />
  </g>
  <g
   id="bullet-char-template-10007"
   transform="matrix(4.8828125e-4,0,0,-4.8828125e-4,0,0)">
   <path
   d="m 0,-2 c -7,16 -16,29 -25,39 l 381,530 c -94,256 -141,385 -141,387 0,25 13,38 40,38 9,0 21,-2 34,-5 21,4 42,12 65,25 l 27,-13 111,-251 280,301 64,-25 24,25 c 21,-10 41,-24 62,-43 C 886,937 835,863 770,784 769,783 710,716 594,584 L 774,223 c 0,-27 -21,-55 -63,-84 l 16,-20 C 717,90 699,76 672,76 641,76 570,178 457,381 L 164,-76 c -22,-34 -53,-51 -92,-51 -42,0 -63,17 -64,51 -7,9 -10,24 -10,44 0,9 1,19 2,30 z"
   id="path172"
   inkscape:connector-curvature="0" />
  </g>
  <g
   id="bullet-char-template-10004"
   transform="matrix(4.8828125e-4,0,0,-4.8828125e-4,0,0)">
   <path
   d="M 285,-33 C 182,-33 111,30 74,156 52,228 41,333 41,471 c 0,78 14,145 41,201 34,71 87,106 158,106 53,0 88,-31 106,-94 l 23,-176 c 8,-64 28,-97 59,-98 l 735,706 c 11,11 33,17 66,17 42,0 63,-15 63,-46 V 965 c 0,-36 -10,-64 -30,-84 L 442,47 C 390,-6 338,-33 285,-33 Z"
   id="path175"
   inkscape:connector-curvature="0" />
  </g>
  <g
   id="bullet-char-template-9679"
   transform="matrix(4.8828125e-4,0,0,-4.8828125e-4,0,0)">
   <path
   d="M 813,0 C 632,0 489,54 383,161 276,268 223,411 223,592 c 0,181 53,324 160,431 106,107 249,161 430,161 179,0 323,-54 432,-161 108,-107 162,-251 162,-431 0,-180 -54,-324 -162,-431 C 1136,54 992,0 813,0 Z"
   id="path178"
   inkscape:connector-curvature="0" />
  </g>
  <g
   id="bullet-char-template-8226"
   transform="matrix(4.8828125e-4,0,0,-4.8828125e-4,0,0)">
   <path
   d="m 346,457 c -73,0 -137,26 -191,78 -54,51 -81,114 -81,188 0,73 27,136 81,188 54,52 118,78 191,78 73,0 134,-26 185,-79 51,-51 77,-114 77,-187 0,-75 -25,-137 -76,-188 -50,-52 -112,-78 -186,-78 z"
   id="path181"
   inkscape:connector-curvature="0" />
  </g>
  <g
   id="bullet-char-template-8211"
   transform="matrix(4.8828125e-4,0,0,-4.8828125e-4,0,0)">
   <path
   d="M -4,459 H 1135 V 606 H -4 Z"
   id="path184"
   inkscape:connector-curvature="0" />
  </g>
  <g
   id="bullet-char-template-61548"
   transform="matrix(4.8828125e-4,0,0,-4.8828125e-4,0,0)">
   <path
   d="m 173,740 c 0,163 58,303 173,419 116,115 255,173 419,173 163,0 302,-58 418,-173 116,-116 174,-256 174,-419 0,-163 -58,-303 -174,-418 C 1067,206 928,148 765,148 601,148 462,206 346,322 231,437 173,577 173,740 Z"
   id="path187"
   inkscape:connector-curvature="0" />
  </g>
 </defs>
 <defs
   class="TextEmbeddedBitmaps"
   id="defs192" />
 
 
<path
   inkscape:connector-curvature="0"
   style="fill:#ffffff;stroke-width:358.7946167"
   d="M 730.39066,606.35091 C 682.14662,564.72032 624.09522,533.39959 560.54628,514.71721 514.57972,499.03819 465.8677,490.87198 416.70814,490.60312 c -49.07946,0.99346 -97.65593,9.13683 -143.83832,24.11409 -62.57035,20.56693 -120.2128,51.66576 -169.84439,91.6337 -22.417598,20.61634 -34.935458,48.32834 -34.853698,77.16517 v 144.6848 H 403.30287 V 589.10934 l -129.36061,56.78871 c -1.71591,0.74878 -3.58997,1.1599 -5.49618,1.20579 -2.70256,-0.0649 -5.3192,-0.86452 -7.507,-2.29088 -3.81899,-2.47051 -5.74282,-6.67958 -4.95988,-10.85138 l 16.4884,-93.32163 8.98154,-3.13492 c 18.23109,-5.42565 35.38986,-9.88673 52.01234,-13.38326 29.25559,41.34725 90.23875,53.53335 136.208,27.22001 12.40652,-7.10162 22.89217,-16.6074 30.68736,-27.82294 17.3691,3.67263 34.47152,8.30247 51.2079,13.86566 l 9.38375,3.25545 16.62249,93.32163 c 0.78292,4.1718 -1.14076,8.38087 -4.96002,10.85138 -2.18766,1.42636 -4.80431,2.22575 -7.50687,2.29088 -1.90621,-0.0458 -3.78026,-0.45701 -5.49618,-1.20579 L 430.11328,589.10934 v 239.09154 h 335.13109 v -144.6848 c 0.0821,-28.83683 -12.4361,-56.54883 -34.85371,-77.16517 z"
   id="path4706" /><path
   inkscape:connector-curvature="0"
   style="fill:#ffffff;stroke-width:358.7946167"
   d="m 549.95614,376.78439 c -0.0135,-8.71606 2.14759,-17.32479 6.30048,-25.19926 -12.08888,-30.11252 -18.17084,-61.90941 -17.96294,-93.92455 h -56.70422 c -40.96108,-0.088 -78.88985,-19.43116 -100.00308,-51.00138 -19.38946,26.63527 -50.80595,44.26752 -85.92767,48.22827 0.50805,32.86152 -5.57659,65.53738 -17.96294,96.45652 7.58191,14.42386 8.35541,30.99268 2.14477,45.93742 79.17937,60.06226 194.95787,60.06226 274.13711,0 -2.65147,-6.57111 -4.0121,-13.50633 -4.02151,-20.49702 z"
   id="path4708" /><path
   inkscape:connector-curvature="0"
   style="fill:#ffffff;stroke-width:358.7946167"
   d="m 697.1457,501.45442 c -24.33577,-10.31118 -43.47444,-28.47149 -53.62095,-50.88077 -5.1261,-13.38819 -7.79787,-27.43705 -7.90909,-41.59686 19.76466,-9.11401 27.57195,-30.91314 17.43889,-48.69008 -2.89151,-5.07242 -7.07534,-9.45877 -12.21085,-12.80099 13.19346,-30.48507 19.48319,-63.03192 18.49924,-95.7331 0,-10.97192 0,-21.58214 -1.74269,-31.71007 C 650.0209,100.37617 536.02009,8.8931988 402.973,15.710254 274.33628,22.301859 174.15224,118.62938 175.41376,234.51103 c 0,0 0,0.84399 0,1.32628 0,5.22432 0,10.52943 0,15.91531 -1.04972,32.70479 5.24283,65.2649 18.49923,95.7331 -17.994,11.71103 -22.0248,34.32405 -9.00439,50.50822 3.71598,4.61906 8.59277,8.38214 14.2323,10.98285 -0.17146,14.1646 -2.88747,28.21227 -8.04304,41.59686 -10.22422,22.36341 -29.33869,40.50213 -53.62094,50.88077 -6.76563,2.7032 -9.81394,9.82892 -6.80853,15.9141 1.82564,3.69674 5.59126,6.32275 10.02574,6.99433 11.93195,1.64821 23.98869,2.4548 36.06009,2.41144 20.11457,0.66192 40.13661,-2.75868 58.58097,-10.00734 15.67873,-6.80386 27.31443,-19.37935 31.90451,-34.4833 5.12745,-18.8765 1.75464,-38.81161 -9.38376,-55.46244 -4.7415,-8.84986 -7.60612,-18.41838 -8.44525,-28.21356 2.29364,-2.68025 4.14483,-5.64509 5.49605,-8.80163 l 0.8043,-2.17027 c 0.57381,-1.65905 1.02149,-3.35066 1.3406,-5.06397 0.42898,-1.90501 0.65288,-3.8438 0.67023,-5.78739 0.17832,-8.87279 -3.36339,-17.48154 -9.91991,-24.11413 15.55285,-31.74505 22.88678,-66.25116 21.44843,-100.91764 0,-6.26966 0,-12.05707 0,-18.32673 50.94002,0 86.46382,-21.70272 98.12628,-54.73908 l 13.40541,-40.99401 16.48845,41.4763 c 12.40921,32.60713 46.53768,54.47743 84.85508,54.37735 h 84.05092 c 0,5.90796 0,12.05707 0,18.20617 -1.49874,34.87748 5.88361,69.60061 21.58238,101.5205 -6.47867,6.67358 -10.00827,15.25459 -9.91978,24.11414 0.0618,2.34629 0.33107,4.68537 0.8043,6.99309 0,1.08514 0,2.29084 1.07231,3.37597 0.29773,0.94286 0.65557,1.86885 1.07259,2.77314 1.35915,3.09143 3.16086,6.01044 5.36197,8.68106 -0.7922,9.80242 -3.65829,19.37814 -8.44525,28.21354 -11.1384,16.65083 -14.5112,36.58594 -9.38362,55.46246 4.58995,15.10393 16.22564,27.67942 31.90437,34.48328 18.24991,6.93638 37.98109,10.14841 57.77667,9.40449 12.0714,0.036 24.12801,-0.77043 36.06009,-2.41144 7.30045,-1.1056 12.22283,-7.32465 10.99358,-13.89087 -0.74662,-3.98851 -3.66623,-7.37536 -7.77637,-9.01756 z"
   id="path4710" /></svg>