<?xml version="1.0" encoding="UTF-8" standalone="no"?>
<svg
   xmlns:ooo="http://xml.openoffice.org/svg/export"
   xmlns:dc="http://purl.org/dc/elements/1.1/"
   xmlns:cc="http://creativecommons.org/ns#"
   xmlns:rdf="http://www.w3.org/1999/02/22-rdf-syntax-ns#"
   xmlns:svg="http://www.w3.org/2000/svg"
   xmlns="http://www.w3.org/2000/svg"
   xmlns:sodipodi="http://sodipodi.sourceforge.net/DTD/sodipodi-0.dtd"
   xmlns:inkscape="http://www.inkscape.org/namespaces/inkscape"
   version="1.2"
   width="32"
   height="32"
   viewBox="0 0 846.66672 846.66668"
   preserveAspectRatio="xMidYMid"
   xml:space="preserve"
   id="svg242"
   sodipodi:docname="users.svg"
   style="fill-rule:evenodd;stroke-width:28.22200012;stroke-linejoin:round"
   inkscape:version="0.92.4 (f8dce91, 2019-08-02)"><metadata
   id="metadata246"><rdf:RDF><cc:Work
       rdf:about=""><dc:format>image/svg+xml</dc:format><dc:type
         rdf:resource="http://purl.org/dc/dcmitype/StillImage" /><dc:title></dc:title></cc:Work></rdf:RDF></metadata><sodipodi:namedview
   pagecolor="#ffffff"
   bordercolor="#666666"
   borderopacity="1"
   objecttolerance="10"
   gridtolerance="10"
   guidetolerance="10"
   inkscape:pageopacity="0"
   inkscape:pageshadow="2"
   inkscape:window-width="1853"
   inkscape:window-height="955"
   id="namedview244"
   showgrid="false"
   inkscape:pagecheckerboard="true"
   inkscape:zoom="15.397221"
   inkscape:cx="23.083526"
   inkscape:cy="17.967642"
   inkscape:window-x="67"
   inkscape:window-y="27"
   inkscape:window-maximized="1"
   inkscape:current-layer="svg242"
   inkscape:snap-page="false"
   inkscape:object-paths="true"
   units="px" />
 <defs
   class="ClipPathGroup"
   id="defs154"><inkscape:perspective
   sodipodi:type="inkscape:persp3d"
   inkscape:vp_x="2415.0466 : 122.61737 : 1"
   inkscape:vp_y="-1266.9907 : 2164.4485 : 0"
   inkscape:vp_z="5240.2409 : 818.43823 : 1"
   inkscape:persp3d-origin="4006.4304 : 165.10008 : 1"
   id="perspective6511" /><marker
   inkscape:stockid="Arrow1Lstart"
   orient="auto"
   refY="0.0"
   refX="0.0"
   id="Arrow1Lstart"
   style="overflow:visible"
   inkscape:isstock="true"><path
     id="path4709"
     d="M 0.0,0.0 L 5.0,-5.0 L -12.5,0.0 L 5.0,5.0 L 0.0,0.0 z "
     style="fill-rule:evenodd;stroke:#000000;stroke-width:1.0pt"
     transform="scale(0.8) translate(12.5,0)" /></marker>
  <clipPath
   id="presentation_clip_path"
   clipPathUnits="userSpaceOnUse">
   <rect
   x="0"
   y="0"
   width="21000"
   height="29700"
   id="rect148" />
  </clipPath>
  <clipPath
   id="presentation_clip_path_shrink"
   clipPathUnits="userSpaceOnUse">
   <rect
   x="21"
   y="29"
   width="20958"
   height="29641"
   id="rect151" />
  </clipPath>
 
  
 </defs>
 <defs
   class="TextShapeIndex"
   id="defs158">
  <g
   ooo:slide="id1"
   ooo:id-list="id3 id4 id5 id6 id7"
   id="g156" />
 </defs>
 <defs
   class="EmbeddedBulletChars"
   id="defs190">
  <g
   id="bullet-char-template-57356"
   transform="matrix(4.8828125e-4,0,0,-4.8828125e-4,0,0)">
   <path
   d="M 580,1141 1163,571 580,0 -4,571 Z"
   id="path160"
   inkscape:connector-curvature="0" />
  </g>
  <g
   id="bullet-char-template-57354"
   transform="matrix(4.8828125e-4,0,0,-4.8828125e-4,0,0)">
   <path
   d="M 8,1128 H 1137 V 0 H 8 Z"
   id="path163"
   inkscape:connector-curvature="0" />
  </g>
  <g
   id="bullet-char-template-10146"
   transform="matrix(4.8828125e-4,0,0,-4.8828125e-4,0,0)">
   <path
   d="M 174,0 602,739 174,1481 1456,739 Z M 1358,739 309,1346 659,739 Z"
   id="path166"
   inkscape:connector-curvature="0" />
  </g>
  <g
   id="bullet-char-template-10132"
   transform="matrix(4.8828125e-4,0,0,-4.8828125e-4,0,0)">
   <path
   d="M 2015,739 1276,0 H 717 l 543,543 H 174 v 393 h 1086 l -543,545 h 557 z"
   id="path169"
   inkscape:connector-curvature="0" />
  </g>
  <g
   id="bullet-char-template-10007"
   transform="matrix(4.8828125e-4,0,0,-4.8828125e-4,0,0)">
   <path
   d="m 0,-2 c -7,16 -16,29 -25,39 l 381,530 c -94,256 -141,385 -141,387 0,25 13,38 40,38 9,0 21,-2 34,-5 21,4 42,12 65,25 l 27,-13 111,-251 280,301 64,-25 24,25 c 21,-10 41,-24 62,-43 C 886,937 835,863 770,784 769,783 710,716 594,584 L 774,223 c 0,-27 -21,-55 -63,-84 l 16,-20 C 717,90 699,76 672,76 641,76 570,178 457,381 L 164,-76 c -22,-34 -53,-51 -92,-51 -42,0 -63,17 -64,51 -7,9 -10,24 -10,44 0,9 1,19 2,30 z"
   id="path172"
   inkscape:connector-curvature="0" />
  </g>
  <g
   id="bullet-char-template-10004"
   transform="matrix(4.8828125e-4,0,0,-4.8828125e-4,0,0)">
   <path
   d="M 285,-33 C 182,-33 111,30 74,156 52,228 41,333 41,471 c 0,78 14,145 41,201 34,71 87,106 158,106 53,0 88,-31 106,-94 l 23,-176 c 8,-64 28,-97 59,-98 l 735,706 c 11,11 33,17 66,17 42,0 63,-15 63,-46 V 965 c 0,-36 -10,-64 -30,-84 L 442,47 C 390,-6 338,-33 285,-33 Z"
   id="path175"
   inkscape:connector-curvature="0" />
  </g>
  <g
   id="bullet-char-template-9679"
   transform="matrix(4.8828125e-4,0,0,-4.8828125e-4,0,0)">
   <path
   d="M 813,0 C 632,0 489,54 383,161 276,268 223,411 223,592 c 0,181 53,324 160,431 106,107 249,161 430,161 179,0 323,-54 432,-161 108,-107 162,-251 162,-431 0,-180 -54,-324 -162,-431 C 1136,54 992,0 813,0 Z"
   id="path178"
   inkscape:connector-curvature="0" />
  </g>
  <g
   id="bullet-char-template-8226"
   transform="matrix(4.8828125e-4,0,0,-4.8828125e-4,0,0)">
   <path
   d="m 346,457 c -73,0 -137,26 -191,78 -54,51 -81,114 -81,188 0,73 27,136 81,188 54,52 118,78 191,78 73,0 134,-26 185,-79 51,-51 77,-114 77,-187 0,-75 -25,-137 -76,-188 -50,-52 -112,-78 -186,-78 z"
   id="path181"
   inkscape:connector-curvature="0" />
  </g>
  <g
   id="bullet-char-template-8211"
   transform="matrix(4.8828125e-4,0,0,-4.8828125e-4,0,0)">
   <path
   d="M -4,459 H 1135 V 606 H -4 Z"
   id="path184"
   inkscape:connector-curvature="0" />
  </g>
  <g
   id="bullet-char-template-61548"
   transform="matrix(4.8828125e-4,0,0,-4.8828125e-4,0,0)">
   <path
   d="m 173,740 c 0,163 58,303 173,419 116,115 255,173 419,173 163,0 302,-58 418,-173 116,-116 174,-256 174,-419 0,-163 -58,-303 -174,-418 C 1067,206 928,148 765,148 601,148 462,206 346,322 231,437 173,577 173,740 Z"
   id="path187"
   inkscape:connector-curvature="0" />
  </g>
 </defs>
 <defs
   class="TextEmbeddedBitmaps"
   id="defs192" />
 
 
<path
   inkscape:connector-curvature="0"
   style="fill:#ffffff;stroke-width:259.21188354"
   d="m 454.33248,559.9699 c -33.14019,-31.63155 -73.01729,-55.42938 -116.67073,-69.62454 -31.5757,-11.91317 -65.03727,-18.11796 -98.80642,-18.32228 -33.71388,0.75485 -67.08245,6.94233 -98.80641,18.32228 C 97.067699,505.97241 57.471469,529.60164 23.378189,559.9699 7.9789287,575.63455 -0.6198913,596.69043 -0.5637213,618.60113 V 728.53462 H 229.64691 V 546.86949 l -88.8613,43.14889 c -1.1621,0.61289 -2.45957,0.92713 -3.77545,0.91613 -1.86931,0.0295 -3.69073,-0.58632 -5.15671,-1.74061 -2.66032,-1.84781 -3.99186,-5.0698 -3.40713,-8.24501 l 11.32637,-70.81551 6.16965,-2.38187 c 12.52344,-4.21417 24.31024,-7.51216 35.72868,-10.16889 20.12133,31.39976 62.01966,40.62686 93.58153,20.60793 8.51872,-5.40226 15.71511,-12.63133 21.06336,-21.15757 11.9332,2.8216 23.68039,6.37063 35.17618,10.62688 l 6.44591,2.38195 11.41845,70.90708 c 0.58473,3.17521 -0.74682,6.3972 -3.40713,8.24501 -1.46598,1.15429 -3.28741,1.76996 -5.1567,1.74061 -1.3159,0.0108 -2.61336,-0.30324 -3.77546,-0.91613 l -88.9534,-43.14889 V 728.53462 H 478.2744 V 618.60113 c 0.0561,-21.9107 -8.54266,-42.96658 -23.94192,-58.63123 z"
   id="path4049" /><path
   inkscape:connector-curvature="0"
   style="fill:#ffffff;stroke-width:259.21188354"
   d="m 355.71026,274.05115 c -9.33274,-21.2346 -22.2936,-40.70016 -38.30705,-57.53189 -16.10001,16.77954 -34.29679,31.43456 -54.14554,43.607 -28.2892,16.14466 -58.03977,29.60968 -88.8613,40.21731 -4.81785,1.62157 -10.04364,-0.95003 -11.67352,-5.74312 -1.26156,-3.71023 -0.012,-7.80889 3.10968,-10.19721 8.68446,-7.85658 15.6175,-17.43818 20.35062,-28.12466 1.10501,-2.38187 2.02586,-4.48897 2.76252,-6.596 -5.99928,6.23781 -12.56489,11.91125 -19.61394,16.94804 -15.05118,10.6068 -31.71474,18.74094 -49.35715,24.09377 -6.99472,9.65857 -12.03082,20.58045 -14.82558,32.15557 -1.39782,6.89189 -2.32143,13.87084 -2.76253,20.88735 30.60881,75.00672 116.54092,111.12634 191.93582,80.67475 36.10348,-14.58179 64.93136,-42.79895 80.17317,-78.47608 -3.34177,-24.63426 -9.64861,-48.77934 -18.7852,-71.91483 z"
   id="path4051" /><path
   inkscape:connector-curvature="0"
   style="fill:#ffffff;stroke-width:259.21188354"
   d="m 107.35903,276.98272 c 1.25695,-1.58488 3.00563,-2.71168 4.97255,-3.20642 16.48768,-4.68317 32.05637,-12.11833 46.04213,-21.98669 13.57414,-9.9398 25.23936,-22.22859 34.4395,-36.27805 1.73948,-2.9279 4.96518,-4.6557 8.37967,-4.48897 3.39514,0.19699 6.40446,2.23992 7.82715,5.31345 0.82877,1.7406 7.73508,18.32228 -6.35381,47.72949 -1.19707,2.56509 -2.48627,4.94703 -3.68336,7.14569 18.78333,-7.55882 36.9746,-16.50014 54.42179,-26.75051 21.15544,-12.80173 40.2224,-28.74213 56.53974,-47.27142 1.62621,-1.9522 3.99369,-3.14592 6.53798,-3.29799 2.57835,-0.18964 5.11803,0.70813 6.9984,2.47351 20.858,20.24332 37.61457,44.28393 49.35717,70.81551 5.61989,14.13563 10.23514,28.64592 13.81264,43.42374 6.68714,-8.72509 10.54181,-19.27135 11.05011,-30.23172 0.0488,-46.57243 -20.78159,-90.74006 -56.81601,-120.46882 l 30.75617,-15.11586 c 3.87304,-2.02186 5.36572,-6.78381 3.33343,-10.63698 -1.58752,-3.00944 -4.93571,-4.6676 -8.30599,-4.11244 l -43.74003,7.87858 10.77386,-15.48232 c 2.1778,-3.18714 1.75145,-7.46905 -1.01294,-10.16885 -2.79751,-2.68145 -7.14941,-2.91507 -10.22134,-0.54966 l -23.20522,17.40614 -23.11316,-41.866351 c -2.1603,-3.783544 -6.99473,-5.107326 -10.7978,-2.95813 -2.8104,1.588549 -4.36848,4.71799 -3.93569,7.905138 l 5.06464,33.804563 c -8.8189,-1.53633 -17.75199,-2.33243 -26.70443,-2.3819 -86.99475,0.10078 -157.464061,70.29056 -157.464061,156.83848 0.18508,9.75568 3.08574,19.26953 8.37966,27.4834 3.93935,-11.10516 9.560181,-21.54697 16.667251,-30.96461 z"
   id="path4053" /><path
   inkscape:connector-curvature="0"
   style="fill:#ffffff;stroke-width:266.912323"
   d="m 825.24556,563.43329 c -35.8755,-30.98159 -79.044,-54.29056 -126.3006,-68.19404 -34.1819,-11.66836 -70.4054,-17.74568 -106.9617,-17.94576 -36.49673,0.73933 -72.61943,6.79965 -106.96183,17.94576 -46.5289,15.30597 -89.3933,38.4498 -126.3006,68.19404 -16.6703,15.34274 -25.9789,35.96608 -25.9181,57.42653 v 107.6748 H 582.01476 V 550.60207 l -96.19583,42.26231 c -1.276,0.55724 -2.6696,0.8632 -4.0871,0.89735 -2.0097,-0.0483 -3.9555,-0.64338 -5.5824,-1.70488 -2.8399,-1.83856 -4.2705,-4.97096 -3.6883,-8.07562 l 12.2612,-69.45021 6.6789,-2.33301 c 13.5571,-4.03778 26.3168,-7.35773 38.6777,-9.95986 21.7552,30.77074 67.10383,39.83966 101.28773,20.25721 9.2258,-5.28505 17.0232,-12.35928 22.8199,-20.70591 12.9161,2.73318 25.6339,6.17872 38.0795,10.31886 l 6.978,2.42271 12.3609,69.45021 c 0.5822,3.10466 -0.8483,6.23706 -3.6884,8.07562 -1.6268,1.0615 -3.5726,1.65641 -5.5823,1.70488 -1.4175,-0.0341 -2.8111,-0.34011 -4.0871,-0.89735 l -96.2955,-42.26231 v 177.93255 h 249.212 v -107.6748 c 0.061,-21.46045 -9.2478,-42.08379 -25.9181,-57.42653 z"
   id="path4706" /><path
   inkscape:connector-curvature="0"
   style="fill:#ffffff;stroke-width:266.912323"
   d="m 691.06986,392.58929 c -0.01,-6.48651 1.597,-12.89316 4.6852,-18.75336 -8.9896,-22.40981 -13.5123,-46.07315 -13.3577,-69.89889 h -42.1667 c -30.4597,-0.0655 -58.6645,-14.46072 -74.36483,-37.95536 -14.4185,19.82203 -37.7806,32.944 -63.898,35.8916 0.3778,24.45563 -4.1469,48.77309 -13.3577,71.78319 5.6381,10.73428 6.2133,23.06484 1.5949,34.18675 58.8798,44.6985 144.97563,44.6985 203.85533,0 -1.9717,-4.89023 -2.9835,-10.05144 -2.9905,-15.25393 z"
   id="path4708" /><path
   inkscape:connector-curvature="0"
   style="fill:#ffffff;stroke-width:266.912323"
   d="m 800.52376,485.36905 c -18.0967,-7.6736 -32.3287,-21.18855 -39.8739,-37.8656 -3.8119,-9.96353 -5.7987,-20.41873 -5.8814,-30.9565 14.6975,-6.78266 20.5032,-23.00563 12.968,-36.23528 -2.1502,-3.7749 -5.2614,-7.03924 -9.0803,-9.52653 9.811,-22.68707 14.4882,-46.90852 13.7565,-71.24482 0,-8.16533 0,-16.06149 -1.2959,-23.59872 -5.6362,-89.05603 -90.4101,-157.1379 -189.3473,-152.06463 -95.65753,4.90549 -170.15693,76.59268 -169.21883,162.83211 0,0 0,0.6281 0,0.98702 0,3.88795 0,7.83603 0,11.84422 -0.7806,24.33899 3.8987,48.57031 13.7565,71.24482 -13.3808,8.71538 -16.3782,25.54405 -6.6959,37.58835 2.7633,3.43752 6.3898,6.23801 10.5835,8.17346 -0.1275,10.54134 -2.1472,20.99565 -5.981,30.9565 -7.603,16.6429 -21.817,30.14179 -39.8739,37.8656 -5.0311,2.01173 -7.2979,7.31471 -5.063,11.84332 1.3576,2.75112 4.1578,4.7054 7.4554,5.2052 8.8729,1.2266 17.8386,1.82686 26.8152,1.79459 14.9577,0.49261 29.8466,-2.05301 43.5623,-7.44749 11.6591,-5.06345 20.3117,-14.42216 23.725,-25.66255 3.8129,-14.04795 1.3048,-28.88371 -6.978,-41.2753 -3.5259,-6.58609 -5.6561,-13.70701 -6.2801,-20.9966 1.7056,-1.99466 3.0822,-4.2011 4.087,-6.5502 l 0.5981,-1.61512 c 0.4267,-1.23467 0.7596,-2.49357 0.9969,-3.76862 0.319,-1.41772 0.4855,-2.86056 0.4984,-4.30699 0.1326,-6.60316 -2.5011,-13.00981 -7.3767,-17.9458 11.5655,-23.62475 17.0192,-49.30429 15.9496,-75.10317 0,-4.6659 0,-8.9729 0,-13.6388 37.8803,0 64.2967,-16.15122 72.9692,-40.73697 l 9.9686,-30.50785 12.26123,30.86677 c 9.2278,24.26631 34.6066,40.54225 63.1004,40.46777 h 62.5024 c 0,4.39672 0,8.9729 0,13.54908 -1.1145,25.95591 4.3752,51.79696 16.0492,75.55182 -4.8177,4.96649 -7.4424,11.35251 -7.3766,17.9458 0.046,1.74612 0.2462,3.48687 0.5981,5.20428 0,0.80756 0,1.70485 0.7974,2.51241 0.2214,0.70168 0.4875,1.3908 0.7976,2.06377 1.0107,2.30065 2.3505,4.47299 3.9873,6.46047 -0.5891,7.29499 -2.7204,14.42127 -6.2801,20.99659 -8.2828,12.3916 -10.7909,27.22736 -6.9779,41.27531 3.4132,11.24039 12.0658,20.5991 23.7249,25.66255 13.5711,5.16207 28.2437,7.55247 42.9642,6.99884 8.9766,0.0268 17.9422,-0.57335 26.8152,-1.79459 5.4288,-0.8228 9.0892,-5.45103 8.1751,-10.33763 -0.5552,-2.96826 -2.7263,-5.48876 -5.7827,-6.71089 z"
   id="path4710" /></svg>